<svg width="179" height="141" viewBox="0 0 179 141" fill="none" xmlns="http://www.w3.org/2000/svg">
<path fill-rule="evenodd" clip-rule="evenodd" d="M94.3743 104.653C113.84 108.415 134.941 109.032 153.382 101.787C160.092 99.1516 165.817 95.1705 171.715 91.1474C172.129 90.8659 172.236 90.299 171.954 89.8828C171.67 89.4672 171.103 89.3596 170.687 89.644C164.903 93.5886 159.297 97.5071 152.716 100.092C134.537 107.234 113.729 106.565 94.5492 102.833L94.5828 102.533C94.9566 99.2803 92.8547 95.3683 89.3962 91.658C84.4396 86.339 76.766 81.3645 70.5982 79.2257C67.8264 78.2652 65.3402 77.8833 63.4961 78.2214C62.0581 78.4841 60.9696 79.1695 60.314 80.2864C58.9185 82.6676 59.9372 85.6569 62.5867 88.6596C68.1261 94.9411 80.6623 101.559 86.7888 103.017C88.7021 103.471 90.6378 103.901 92.5906 104.298C92.5404 104.872 92.4889 105.434 92.4142 105.978C92.1967 107.527 91.7795 108.953 90.5138 110.24C88.539 112.244 85.7658 113.358 82.7552 113.951C78.0561 114.873 72.7756 114.51 68.8165 114.018C46.7676 111.272 32.3968 98.9758 22.4312 85.2245C12.3692 71.3351 6.77213 55.9563 2.34018 47.2413C2.1131 46.7926 1.56471 46.6162 1.11599 46.8433C0.667258 47.0704 0.488588 47.6195 0.71795 48.0675C5.17781 56.839 10.8272 72.3119 20.9582 86.2926C31.1856 100.411 45.9572 113.006 68.5903 115.826C72.7143 116.34 78.2125 116.699 83.1056 115.738C86.4926 115.071 89.5896 113.772 91.8119 111.518C93.8052 109.493 94.1314 107.213 94.3743 104.653ZM92.7564 102.473L92.7747 102.324C93.1018 99.481 91.0885 96.1443 88.0638 92.9006C83.3009 87.7894 75.9306 83.0032 70.0003 80.9479C67.9675 80.2419 66.1145 79.8588 64.6121 79.9256C63.373 79.9823 62.3945 80.3388 61.8869 81.2079C61.4037 82.0266 61.3995 82.9455 61.7175 83.9136C62.089 85.0508 62.8819 86.2411 63.9512 87.4547C69.2747 93.4901 81.323 99.8444 87.2101 101.245C89.0388 101.678 90.8883 102.09 92.7564 102.473Z" fill="white"/>
<path fill-rule="evenodd" clip-rule="evenodd" d="M173.798 86.7681C173.835 87.1999 173.692 87.8029 173.53 88.4499C173.146 89.9916 172.453 91.7232 172.162 92.5499C171.976 93.0821 172.286 93.6266 172.85 93.7696C173.417 93.9118 174.026 93.5972 174.212 93.0649C174.568 92.052 175.487 89.7429 175.812 87.9668C175.985 87.014 175.971 86.1886 175.75 85.6621C175.377 84.7648 174.39 84.4423 172.805 84.9807C170.929 85.6188 167.693 87.5842 164.431 87.4789C163.839 87.4588 163.313 87.8917 163.26 88.4389C163.206 88.9894 163.642 89.4503 164.237 89.4696C167.347 89.5684 170.462 88.0657 172.596 87.1744C173.002 87.0055 173.501 86.8537 173.798 86.7681Z" fill="white"/>
</svg>
