<svg width="62" height="62" viewBox="0 0 62 62" fill="none" xmlns="http://www.w3.org/2000/svg">
<circle opacity="0.1" cx="31" cy="31" r="31" fill="#4CC2C0"/>
<path d="M41.6054 38.9102H39.6718V34.7081C39.6718 34.3076 39.401 33.9576 39.0133 33.8573C37.198 33.3872 35.4673 32.6725 33.8692 31.7329C33.5053 31.519 33.0404 31.594 32.7624 31.9118L31.4208 33.4449C31.1261 33.7817 30.6294 33.8554 30.2901 33.6126C28.1489 32.0806 26.2567 30.2182 24.7247 28.0771C24.4819 27.7377 24.5555 27.241 24.8924 26.9464L26.4309 25.6002C26.7484 25.3224 26.8237 24.8581 26.6103 24.4942C25.6737 22.897 24.961 21.1676 24.4921 19.3542C24.3918 18.9663 24.0418 18.6953 23.6412 18.6953H18.6455C16.8977 18.6953 15.6298 20.3661 16.0981 22.0565C17.4273 26.8538 20.0002 31.2595 23.5385 34.7971C27.0767 38.3347 31.5128 40.907 36.3109 42.2361C37.6733 42.6134 39.0076 41.8639 39.4843 40.668H41.6054C43.0593 40.668 44.2422 41.8508 44.2422 43.3047C44.2422 43.7901 44.6357 44.1836 45.1211 44.1836C45.6065 44.1836 46 43.7901 46 43.3047C46 40.8815 44.0286 38.9102 41.6054 38.9102Z" fill="white"/>
<g opacity="0.2">
<path d="M29.125 17.8164C28.6396 17.8164 28.2461 18.2099 28.2461 18.6953C28.2461 19.1807 28.6396 19.5742 29.125 19.5742C34.4559 19.5742 38.793 23.9113 38.793 29.2422C38.793 29.7276 39.1865 30.1211 39.6719 30.1211C40.1573 30.1211 40.5508 29.7276 40.5508 29.2422C40.5508 22.942 35.4252 17.8164 29.125 17.8164ZM29.125 21.332C28.6396 21.332 28.2461 21.7255 28.2461 22.2109C28.2461 22.6963 28.6396 23.0898 29.125 23.0898C32.5174 23.0898 35.2773 25.8498 35.2773 29.2422C35.2773 29.7276 35.6709 30.1211 36.1562 30.1211C36.6416 30.1211 37.0352 29.7276 37.0352 29.2422C37.0352 24.8805 33.4867 21.332 29.125 21.332ZM29.125 24.8477C28.6396 24.8477 28.2461 25.2412 28.2461 25.7266C28.2461 26.212 28.6396 26.6055 29.125 26.6055C30.5789 26.6055 31.7617 27.7883 31.7617 29.2422C31.7617 29.7276 32.1552 30.1211 32.6406 30.1211C33.126 30.1211 33.5195 29.7276 33.5195 29.2422C33.5195 26.819 31.5481 24.8477 29.125 24.8477Z" fill="white"/>
</g>
</svg>
