<svg width="40" height="40" viewBox="0 0 40 40" fill="none" xmlns="http://www.w3.org/2000/svg">
<path d="M10.7335 3.33325H29.2502C35.1835 3.33325 36.6668 4.81659 36.6668 10.7333V21.2833C36.6668 27.2166 35.1835 28.6833 29.2668 28.6833H10.7335C4.81683 28.6999 3.3335 27.2166 3.3335 21.2999V10.7333C3.3335 4.81659 4.81683 3.33325 10.7335 3.33325Z" stroke="white" stroke-width="2" stroke-linecap="round" stroke-linejoin="round"/>
<path d="M20 28.7V36.6666" stroke="white" stroke-width="2" stroke-linecap="round" stroke-linejoin="round"/>
<path d="M12.5 36.6667H27.5" stroke="white" stroke-width="2" stroke-linecap="round" stroke-linejoin="round"/>
<path d="M25.9733 19.8932L24.8866 20.2599C24.5866 20.3599 24.3466 20.5933 24.2466 20.8999L23.88 21.9866C23.5666 22.9266 22.2466 22.9066 21.9533 21.9666L20.72 17.9999C20.48 17.2132 21.2066 16.4799 21.9866 16.7266L25.96 17.9599C26.8933 18.2532 26.9066 19.5799 25.9733 19.8932Z" stroke="white" stroke-width="1.5" stroke-linecap="round" stroke-linejoin="round"/>
<path d="M26.6668 15.9999C26.6668 12.3199 23.6802 9.33325 20.0002 9.33325C16.3202 9.33325 13.3335 12.3199 13.3335 15.9999C13.3335 19.6799 16.3202 22.6666 20.0002 22.6666" stroke="white" stroke-width="1.5" stroke-linecap="round" stroke-linejoin="round"/>
</svg>
