<svg width="40" height="40" viewBox="0 0 40 40" fill="none" xmlns="http://www.w3.org/2000/svg">
<path d="M10.7335 3.33325H29.2502C35.1835 3.33325 36.6668 4.81659 36.6668 10.7333V21.2833C36.6668 27.2166 35.1835 28.6833 29.2668 28.6833H10.7335C4.81683 28.6999 3.3335 27.2166 3.3335 21.2999V10.7333C3.3335 4.81659 4.81683 3.33325 10.7335 3.33325Z" stroke="white" stroke-width="2" stroke-linecap="round" stroke-linejoin="round"/>
<path d="M20 28.7V36.6666" stroke="white" stroke-width="2" stroke-linecap="round" stroke-linejoin="round"/>
<path d="M12.5 36.6667H27.5" stroke="white" stroke-width="2" stroke-linecap="round" stroke-linejoin="round"/>
<path d="M26.75 12.25V19.75C26.75 22 25.625 23.5 23 23.5H17C14.375 23.5 13.25 22 13.25 19.75V12.25C13.25 10 14.375 8.5 17 8.5H23C25.625 8.5 26.75 10 26.75 12.25Z" stroke="white" stroke-width="2" stroke-miterlimit="10" stroke-linecap="round" stroke-linejoin="round"/>
<path d="M21.875 10.375V11.875C21.875 12.7 22.55 13.375 23.375 13.375H24.875" stroke="white" stroke-width="1.5" stroke-miterlimit="10" stroke-linecap="round" stroke-linejoin="round"/>
<path d="M17 16.75H20" stroke="white" stroke-width="2" stroke-miterlimit="10" stroke-linecap="round" stroke-linejoin="round"/>
<path d="M17 19.75H23" stroke="white" stroke-width="2" stroke-miterlimit="10" stroke-linecap="round" stroke-linejoin="round"/>
</svg>
