<svg width="88" height="24" viewBox="0 0 88 24" fill="none" xmlns="http://www.w3.org/2000/svg">
<g clip-path="url(#clip0_7615_2935)">
<path d="M21.912 12.138C21.912 14.9953 20.7921 17.7355 18.7988 19.7559C16.8055 21.7763 14.1019 22.9113 11.2829 22.9113C8.46389 22.9113 5.76034 21.7763 3.767 19.7559C1.77366 17.7355 0.653809 14.9953 0.653809 12.138C0.653809 9.28077 1.77366 6.54055 3.767 4.52017C5.76034 2.49978 8.46389 1.36475 11.2829 1.36475C14.1019 1.36475 16.8055 2.49978 18.7988 4.52017C20.7921 6.54055 21.912 9.28077 21.912 12.138Z" fill="#EE3023"/>
<path d="M11.3704 18.1423C8.44955 18.1527 5.41046 15.6301 5.39503 11.5699C5.38989 8.8857 6.81945 6.30574 8.63981 4.7734C10.4242 3.27755 12.8616 2.32374 15.0728 2.31332C15.3308 2.30347 15.5889 2.33156 15.839 2.39671C14.8682 2.61358 13.9979 3.15604 13.369 3.93634C12.74 4.71664 12.3892 5.68917 12.3731 6.69664C12.3731 6.76961 12.3731 6.84258 12.3834 6.87385C15.623 7.67129 17.0886 9.65187 17.0989 12.3934C17.0969 13.1526 16.9469 13.9039 16.6576 14.6042C16.3683 15.3046 15.9454 15.94 15.4131 16.4742C14.8808 17.0084 14.2497 17.4307 13.5559 17.717C12.8621 18.0032 12.1194 18.1478 11.3704 18.1423Z" fill="white"/>
<path d="M28.777 16.5995L25.5322 8.73457H27.656L29.6872 13.957L31.6515 8.73457H33.6776L30.5202 16.5995H28.777ZM39.3289 12.628C39.3313 12.3116 39.2933 11.9963 39.2158 11.6898C39.1504 11.4186 39.0352 11.1622 38.8764 10.934C38.7333 10.7272 38.5473 10.5547 38.3313 10.4285C38.101 10.2967 37.8399 10.2301 37.5754 10.2356C37.3109 10.2298 37.0498 10.2965 36.8195 10.4285C36.6013 10.5535 36.4134 10.7262 36.2693 10.934C36.1117 11.1642 35.9983 11.4223 35.935 11.695C35.858 11.9998 35.82 12.3133 35.8219 12.628C35.8193 12.9443 35.8574 13.2597 35.935 13.5661C35.9998 13.8365 36.1093 14.0938 36.259 14.3271C36.4013 14.547 36.5961 14.7268 36.8254 14.8498C37.0546 14.9728 37.3109 15.0351 37.5703 15.0307C37.8296 15.0387 38.0864 14.978 38.3155 14.8546C38.5446 14.7312 38.7379 14.5494 38.8764 14.3271C39.033 14.0976 39.1479 13.8417 39.2158 13.5713C39.2939 13.2632 39.332 12.9461 39.3289 12.628ZM41.2882 12.6332C41.2882 13.1461 41.2102 13.6559 41.0568 14.1447C40.9072 14.6268 40.6719 15.0773 40.3625 15.4737C40.0308 15.8966 39.6059 16.2348 39.1218 16.4611C38.6378 16.6874 38.1082 16.7955 37.5754 16.7767C37.0421 16.7943 36.5121 16.6856 36.0275 16.4595C35.5428 16.2333 35.1168 15.8958 34.7832 15.4737C34.4745 15.0768 34.2393 14.6265 34.089 14.1447C33.7834 13.1661 33.7834 12.1158 34.089 11.1373C34.2394 10.6603 34.4747 10.2151 34.7832 9.82389C35.0971 9.43239 35.4921 9.11566 35.9402 8.89614C36.4507 8.65083 37.0106 8.52948 37.5754 8.54173C38.1048 8.52689 38.6306 8.63467 39.1126 8.85686C39.5947 9.07904 40.0205 9.40978 40.3574 9.82389C40.6659 10.2096 40.9025 10.6474 41.0568 11.1373C41.211 11.6272 41.2882 12.1276 41.2882 12.6332ZM47.284 10.4702C46.9434 10.3247 46.5789 10.2452 46.2093 10.2356C45.9204 10.2215 45.6326 10.2808 45.3721 10.4083C45.1117 10.5357 44.8868 10.7272 44.7181 10.9653C44.5556 11.1941 44.4338 11.4499 44.3581 11.7211C44.2783 12.0005 44.2385 12.2901 44.2398 12.5811C44.238 12.8968 44.2726 13.2116 44.3427 13.5192C44.4045 13.7971 44.5142 14.0617 44.6666 14.301C44.8055 14.5212 44.9919 14.7066 45.2117 14.8431C45.4277 14.9786 45.6899 15.0516 45.9831 15.0516C46.248 15.0456 46.5075 14.974 46.739 14.8431C46.9607 14.7371 47.1494 14.5712 47.284 14.3636V10.4702ZM47.4435 16.5995L47.3663 15.9949C47.1615 16.2205 46.9174 16.406 46.6464 16.5422C46.2534 16.7126 45.8277 16.7917 45.4006 16.7737C44.9735 16.7556 44.5558 16.6409 44.1781 16.438C43.7732 16.2122 43.4221 15.899 43.1497 15.5206C42.8619 15.1227 42.646 14.6763 42.512 14.202C42.3676 13.6937 42.2949 13.1673 42.296 12.6384C42.296 12.1224 42.368 11.622 42.5172 11.1321C42.6622 10.6564 42.8942 10.2127 43.2011 9.82389C43.5325 9.40736 43.955 9.07469 44.4352 8.85217C44.9153 8.62964 45.44 8.52336 45.9676 8.54173C46.379 8.54173 46.8161 8.61991 47.284 8.77106V5.72202H49.2793V16.5995H47.4435ZM54.8946 12.9094C54.4547 12.9393 54.0169 12.995 53.5833 13.0762C53.1514 13.1648 52.8531 13.3107 52.6834 13.5244C52.5246 13.7196 52.4374 13.9646 52.4366 14.2176C52.4366 14.4782 52.5292 14.6867 52.7194 14.8431C52.9498 15.014 53.2314 15.0988 53.5165 15.0828C53.7736 15.0828 54.0307 15.0307 54.2724 14.9213C54.501 14.8201 54.7113 14.681 54.8946 14.5095V12.9094ZM55.054 16.5891L54.9769 16.0054C54.7488 16.2557 54.4674 16.4499 54.1541 16.5735C53.4952 16.8378 52.7637 16.8489 52.0972 16.6047C51.6187 16.443 51.2041 16.1299 50.9143 15.7114C50.6246 15.293 50.475 14.7913 50.4877 14.2802C50.4811 13.936 50.5533 13.5949 50.6988 13.2838C50.8442 12.9727 51.0589 12.7 51.3259 12.4872C51.5957 12.2745 51.8956 12.104 52.2155 11.9817C52.8279 11.7615 53.4656 11.6214 54.113 11.5647L54.8843 11.4917V11.3771C54.8843 10.9445 54.7712 10.637 54.5501 10.4493C54.2866 10.2508 53.9624 10.153 53.6348 10.1731C53.052 10.176 52.4843 10.3618 52.0098 10.7047C51.9061 10.7715 51.8065 10.8446 51.7115 10.9236L51.0482 9.50595C51.3664 9.26126 51.7158 9.06139 52.0869 8.91178C53.0535 8.50454 54.1263 8.43486 55.1363 8.71372C55.4836 8.82374 55.8013 9.01296 56.0652 9.26685C56.329 9.52073 56.532 9.83253 56.6584 10.1783C56.813 10.6143 56.8862 11.0755 56.8744 11.5386V16.5943L55.054 16.5891ZM63.04 7.51496C62.6846 7.35367 62.298 7.2753 61.9087 7.28563C61.6361 7.28563 61.3996 7.36902 61.2145 7.54102C61.0242 7.7078 60.9316 7.98404 60.9316 8.36452V8.73457H62.608V10.3659H60.9471V16.5995H58.9519V10.3659H57.9234V8.73457H58.9519V8.31761C58.9519 7.80162 59.0187 7.36902 59.1473 7.0146C59.2522 6.69713 59.4293 6.40909 59.6642 6.1737C59.8991 5.93832 60.1853 5.76217 60.4997 5.65947C61.4159 5.41146 62.3868 5.47182 63.2662 5.83147L63.04 7.51496ZM68.4805 12.628C68.4819 12.3117 68.4439 11.9964 68.3674 11.6898C68.3019 11.4186 68.1868 11.1622 68.028 10.934C67.8849 10.7272 67.6988 10.5547 67.4829 10.4285C67.2525 10.2967 66.9915 10.2301 66.727 10.2356C66.4625 10.2298 66.2013 10.2965 65.9711 10.4285C65.7535 10.5543 65.5657 10.7269 65.4209 10.934C65.263 11.1647 65.148 11.4226 65.0815 11.695C64.9249 12.3104 64.9249 12.956 65.0815 13.5713C65.1493 13.8399 65.2605 14.0953 65.4106 14.3271C65.5512 14.5421 65.7396 14.7206 65.9608 14.8483C66.1959 14.9768 66.4599 15.0414 66.727 15.0359C66.9859 15.0424 67.242 14.9805 67.4702 14.8562C67.6983 14.7319 67.8905 14.5496 68.028 14.3271C68.1846 14.0976 68.2995 13.8417 68.3674 13.5713C68.4445 13.263 68.4826 12.946 68.4805 12.628ZM70.4397 12.6332C70.4407 13.1461 70.3626 13.6561 70.2083 14.1447C70.0596 14.6272 69.8242 15.0778 69.5141 15.4737C69.1824 15.8966 68.7574 16.2348 68.2734 16.4611C67.7894 16.6874 67.2597 16.7955 66.727 16.7767C66.1937 16.7943 65.6637 16.6856 65.179 16.4595C64.6944 16.2333 64.2683 15.8958 63.9347 15.4737C63.6261 15.0768 63.3909 14.6265 63.2405 14.1447C62.9309 13.1668 62.9309 12.1152 63.2405 11.1373C63.3894 10.6606 63.6229 10.2155 63.9296 9.82389C64.245 9.43179 64.6418 9.11502 65.0917 8.89614C65.6023 8.65083 66.1621 8.52948 66.727 8.54173C67.2564 8.52689 67.7821 8.63467 68.2642 8.85686C68.7463 9.07904 69.172 9.40978 69.509 9.82389C69.8175 10.2096 70.054 10.6474 70.2083 11.1373C70.3626 11.6272 70.4397 12.1276 70.4397 12.6332ZM76.6361 16.5995V12.1172C76.6669 11.6247 76.5368 11.1356 76.2659 10.7256C76.1458 10.5664 75.9896 10.4387 75.8106 10.3535C75.6316 10.2682 75.4351 10.2278 75.2375 10.2356C74.9323 10.2321 74.6326 10.3171 74.3736 10.4806C74.125 10.6329 73.8954 10.8149 73.6896 11.0227V16.5995H71.6944V8.73457H73.5148L73.6074 9.36002C74.2351 8.82958 75.027 8.5399 75.8442 8.54173C76.2556 8.54173 76.631 8.60427 76.9755 8.72936C77.3117 8.85247 77.6135 9.05635 77.8549 9.32353C78.1068 9.59456 78.2971 9.94897 78.4308 10.3816C78.5645 10.8194 78.6314 11.3406 78.6314 11.9452V16.5995H76.6361ZM84.8381 11.7211C84.8234 11.4765 84.7659 11.2365 84.6684 11.0122C84.5889 10.8275 84.4734 10.6609 84.329 10.5223C84.0799 10.2886 83.7531 10.1583 83.4137 10.1575C83.0491 10.1641 82.6989 10.3028 82.4264 10.5484C82.2622 10.6968 82.1289 10.877 82.0344 11.0784C81.9399 11.2798 81.8861 11.4983 81.8761 11.7211H84.8381ZM81.8298 13.1752C81.871 13.8372 82.0767 14.3167 82.4469 14.6085C82.8545 14.9157 83.3536 15.0721 83.861 15.0516C84.3356 15.051 84.8061 14.9627 85.2495 14.791C85.4122 14.7256 85.5702 14.649 85.7225 14.5616C85.8263 14.5018 85.9229 14.4301 86.0105 14.3479L86.5453 15.9949C86.2427 16.2024 85.9118 16.364 85.5631 16.4744C84.9265 16.6723 84.2647 16.7742 83.5988 16.7767C83.1086 16.7785 82.6217 16.6956 82.159 16.5318C81.7093 16.3728 81.3001 16.1147 80.9608 15.776C80.6016 15.4113 80.3213 14.9746 80.138 14.4939C79.9204 13.9116 79.8157 13.2922 79.8295 12.6697C79.8295 12.0025 79.9272 11.4188 80.1123 10.908C80.3425 10.2078 80.7875 9.60044 81.3824 9.17474C81.9772 8.74903 82.6908 8.52723 83.4188 8.54173C83.8875 8.53699 84.3529 8.62004 84.7918 8.78669C85.2083 8.94826 85.5683 9.20365 85.8717 9.54244C86.1802 9.88643 86.4219 10.3295 86.5967 10.8767C86.7767 11.4188 86.8641 12.0651 86.8641 12.8156V13.1752H81.8298Z" fill="#EE3023"/>
</g>
<defs>
<clipPath id="clip0_7615_2935">
<rect width="86.8966" height="22.7586" fill="white" transform="translate(0.653809 0.758667)"/>
</clipPath>
</defs>
</svg>
