<svg width="104" height="36" viewBox="0 0 104 36" fill="none" xmlns="http://www.w3.org/2000/svg">
<path fill-rule="evenodd" clip-rule="evenodd" d="M89.2137 16.3925L89.2435 16.2008C89.2581 16.1239 89.2367 16.0436 89.1884 15.9827C89.1383 15.9231 89.0657 15.8875 88.9892 15.8875H87.6394C87.5145 15.8858 87.4054 15.9758 87.3817 16.1021L87.3441 16.3104L85.9019 24.3515C85.889 24.429 85.912 24.5099 85.9627 24.5701C86.0138 24.6298 86.0915 24.6654 86.1691 24.6637L86.835 24.6533H87.4611C87.5859 24.6533 87.69 24.5644 87.7147 24.4422L88.7041 19.4515C89.0309 18.1868 89.8521 17.8104 90.5788 17.7008C90.6176 17.6956 90.7644 17.6979 90.7953 17.6773C90.2975 20.7031 89.7081 24.2855 89.6979 24.3452C89.685 24.4209 89.7069 24.4995 89.7559 24.5598C89.8048 24.6189 89.8785 24.6533 89.9527 24.6533H91.4067C91.5197 24.6533 91.621 24.5793 91.6536 24.4674C91.7003 24.3217 92.0479 22.2656 92.2566 21.0307C92.7948 21.8634 94.5137 24.5317 94.5137 24.5317C94.5621 24.6063 94.6436 24.6505 94.7308 24.6505L96.4682 24.6533C96.4997 24.6533 96.5284 24.6459 96.5577 24.6361C96.5948 24.6533 96.6358 24.6648 96.6763 24.6637L98.1432 24.6533C98.2698 24.6528 98.3761 24.5598 98.3969 24.4353C98.3969 24.4353 99.4594 18.1748 99.5291 17.7639C99.8705 17.7633 101.213 17.7616 101.213 17.7616C101.339 17.7616 101.447 17.6687 101.469 17.5418L101.696 16.1956C101.699 16.1807 101.7 16.1669 101.7 16.1509C101.7 16.09 101.678 16.0292 101.64 15.9816C101.591 15.9219 101.518 15.8875 101.44 15.8875H99.7811C99.8621 15.4118 100.157 13.6564 100.157 13.6564C100.159 13.6409 100.161 13.626 100.161 13.6117C100.161 13.548 100.14 13.4877 100.1 13.4407C100.052 13.3798 99.9774 13.3466 99.902 13.3466H98.4441C98.3181 13.3466 98.2102 13.4395 98.1882 13.5658C98.1882 13.5658 97.8637 15.5277 97.8035 15.8875C97.6719 15.8915 97.5358 15.8944 97.5358 15.8944L97.3085 15.8961L97.0672 15.8915C96.9744 15.8892 96.8918 15.938 96.8434 16.0143C96.7967 15.9414 96.718 15.8944 96.6297 15.8944L95.2949 15.8915H94.904C94.8315 15.8915 94.7634 15.9231 94.7128 15.9764C94.7128 15.9764 93.3702 17.5464 92.657 18.3343C92.8657 17.0862 93.4411 13.6599 93.4411 13.6599C93.4428 13.6438 93.4445 13.63 93.4445 13.614C93.4445 13.5526 93.4225 13.4917 93.3826 13.4447C93.3337 13.3838 93.2611 13.35 93.1846 13.35L91.7323 13.3466C91.6047 13.346 91.4955 13.4384 91.4747 13.5652C91.441 13.7695 91.2903 14.6813 91.0883 15.8961C91.0861 15.8921 91.0844 15.8892 91.0816 15.8858C91.0304 15.8244 90.9562 15.7922 90.8774 15.7951C90.2587 15.8135 89.7002 16.0723 89.2137 16.3925ZM96.4885 23.9206C95.8906 22.9404 94.1436 20.0793 93.99 19.8268C94.192 19.5835 96.3186 16.9399 96.7506 16.4223L96.5593 17.4472C96.5447 17.5252 96.5661 17.6055 96.6156 17.6652C96.6651 17.7255 96.7376 17.7616 96.8158 17.7616H97.4784C97.403 18.2287 96.7101 22.5365 96.4885 23.9206ZM46.6228 20.4982C46.3196 21.5782 45.3173 22.6059 44.3392 22.8481C43.5911 22.9491 43.0422 22.8773 42.6597 22.6248C42.257 22.3425 42.0551 21.8525 41.8987 21.41C41.8717 21.2517 41.8577 21.0921 41.8577 20.9366C41.8577 19.9531 42.3734 19.0051 43.3223 18.2792C43.8679 17.8896 44.6086 17.7427 45.2588 17.8947C45.6255 17.9808 46.1273 18.2035 46.4405 18.7819C46.616 19.0958 46.7094 19.4934 46.7094 19.8813C46.7094 20.096 46.6801 20.3066 46.6228 20.4982ZM39.2282 13.5571L38.9143 15.2959C38.8997 15.3733 38.9205 15.4542 38.97 15.5168C39.0195 15.5765 39.0926 15.612 39.1719 15.612H40.6889C40.8137 15.612 40.9223 15.5214 40.9448 15.394L41.2299 13.6708C41.2423 13.5939 41.2221 13.513 41.1737 13.4527C41.1242 13.3925 41.0511 13.3569 40.9757 13.3563L39.4846 13.3437C39.3598 13.3425 39.2523 13.4332 39.2282 13.5571ZM35.9513 20.4982C36.0081 20.3066 36.0357 20.096 36.0357 19.8813C36.0357 19.4934 35.9434 19.0958 35.7685 18.7819C35.4535 18.2035 34.9524 17.9808 34.5851 17.8947C33.9366 17.7427 33.1941 17.8896 32.6485 18.2792C31.7014 19.0051 31.1839 19.9531 31.1839 20.9366C31.1839 21.0921 31.1985 21.2517 31.2255 21.41C31.3819 21.8525 31.5838 22.3425 31.9871 22.6248C32.3696 22.8773 32.9191 22.9491 33.666 22.8481C34.6447 22.6059 35.6459 21.5782 35.9513 20.4982ZM23.5075 19.2576C24.1285 19.2519 27.1022 19.2232 27.5302 19.2191C27.4993 18.9253 27.3474 18.6499 27.0296 18.3251C26.6786 18.0187 26.1977 17.8747 25.5149 17.8706C24.7753 17.9762 23.9114 18.4726 23.5075 19.2576ZM84.4705 20.4982C84.1679 21.5782 83.1661 22.6059 82.1869 22.8481C81.4383 22.9491 80.8893 22.8773 80.5091 22.6248C80.1052 22.3425 79.9028 21.8525 79.7464 21.41C79.7205 21.2517 79.7048 21.0921 79.7048 20.9366C79.7048 19.9531 80.2211 19.0051 81.1711 18.2792C81.715 17.8896 82.4574 17.7427 83.1071 17.8947C83.4732 17.9808 83.9761 18.2035 84.2888 18.7819C84.4626 19.0958 84.5565 19.4934 84.5565 19.8813C84.5565 20.096 84.5278 20.3066 84.4705 20.4982ZM2.84961 24.5173V24.3526C2.85748 24.3354 2.86761 24.3188 2.88054 24.3044L13.6893 11.5952C13.727 11.5528 13.7798 11.5275 13.8372 11.5275H15.5825C15.6399 11.5275 15.695 11.5545 15.7327 11.6004C15.7608 11.636 15.7771 11.6824 15.7771 11.7255C15.7771 11.7381 15.7743 11.753 15.772 11.7662C15.772 11.7662 14.4182 18.5874 14.1668 19.8211C15.0189 18.8387 21.3106 11.5952 21.3106 11.5952C21.3466 11.551 21.4005 11.5275 21.4551 11.5275H23.0975C23.1577 11.5275 23.2145 11.555 23.2516 11.6032C23.2881 11.6515 23.3016 11.7151 23.2865 11.7737L21.5625 18.9144C21.5766 18.888 21.589 18.8622 21.6019 18.837C22.4225 17.209 23.9817 16.0648 25.669 15.8542C25.6741 15.853 25.6808 15.853 25.6876 15.853C27.2135 15.7739 28.3913 16.3632 29.0978 17.5533C29.1017 17.5596 29.1045 17.5654 29.109 17.5722C29.3627 18.0921 29.5517 18.7905 29.5854 19.5095C29.8734 18.6522 30.3852 17.8592 31.0967 17.1901C32.3026 16.0459 33.7729 15.5954 35.2387 15.9236C35.2538 15.9271 35.2718 15.9334 35.287 15.9397L35.4231 15.9994C35.7482 16.1423 36.102 16.3006 36.4013 16.5744C36.5599 15.8135 37.0245 13.5571 37.0245 13.5571C37.0503 13.4349 37.1566 13.3466 37.2798 13.3466H38.6275C38.7056 13.3466 38.7788 13.3821 38.8283 13.4412C38.8778 13.5021 38.8986 13.5824 38.8851 13.6599L36.9193 24.4737C36.8957 24.6 36.7882 24.6906 36.6622 24.6906L35.3253 24.6866C35.2471 24.6866 35.1729 24.6533 35.1234 24.5931C35.084 24.5449 35.0632 24.4846 35.0632 24.4232C35.0632 24.4066 35.0649 24.3899 35.0682 24.3745C35.0682 24.3745 35.102 24.1931 35.1234 24.0732C34.0333 24.7595 32.9298 25.0269 31.896 24.8358C30.7137 24.596 29.613 23.4167 29.3914 22.1532C29.3306 21.8146 29.3036 21.4755 29.307 21.1415C29.2603 21.1845 29.1984 21.2103 29.1321 21.2103C29.1321 21.2103 23.2184 21.2126 22.9242 21.2132C22.9175 21.239 22.9136 21.2626 22.9136 21.2901C22.9136 21.3871 22.9462 21.5128 22.9889 21.6562C22.9889 21.6562 23.0069 21.7216 23.0154 21.7497C23.3101 22.4883 24.0171 22.9514 24.8192 22.9318C25.6167 22.9135 26.3558 22.5238 27.0122 21.775C27.0605 21.7182 27.132 21.6861 27.2051 21.6861H28.5893C28.6787 21.6861 28.7625 21.7331 28.8092 21.8106C28.8576 21.8875 28.8638 21.9844 28.8261 22.0665C28.0403 23.7518 26.2782 24.884 24.4288 24.884C23.1425 24.8329 22.0626 24.1943 21.4613 23.1264C21.1621 22.5571 21.0203 21.8507 21.0288 21.1277L20.2166 24.4921C20.1946 24.5828 20.1153 24.6447 20.0259 24.6447H18.275C18.2159 24.6447 18.1591 24.6166 18.1231 24.5684C18.0944 24.5323 18.0798 24.4886 18.0798 24.4456C18.0798 24.429 18.0821 24.4146 18.0849 24.3991C18.7688 21.4944 19.7278 17.3657 20.076 15.732C19.2385 16.7322 12.6757 24.5627 12.6757 24.5627C12.6397 24.6069 12.5863 24.6315 12.5295 24.6315L11.0502 24.6447C10.9906 24.6447 10.9355 24.6183 10.8978 24.5701C10.8697 24.5351 10.8539 24.4909 10.8539 24.4456C10.8539 24.4318 10.8545 24.4175 10.8579 24.4037C11.4839 21.4646 12.3596 17.279 12.6678 15.6511C11.8607 16.6346 5.35198 24.5741 5.35198 24.5741C5.31429 24.6195 5.25636 24.6459 5.19618 24.6447C4.69109 24.6269 4.31031 24.6292 3.86822 24.6315H3.02566C2.95029 24.6333 2.88111 24.5879 2.84961 24.5173ZM86.8767 15.9827C86.8283 15.9231 86.7552 15.8875 86.6776 15.8875H85.3288C85.2062 15.8875 85.0987 15.9753 85.074 16.0981L84.9699 16.6185C84.6701 16.3448 84.3715 16.1692 83.9434 15.9994L83.809 15.9397C83.7927 15.9334 83.7764 15.9271 83.7595 15.9236C82.2949 15.5954 80.8235 16.0459 79.6182 17.1901C79.0169 17.7547 78.5607 18.4095 78.2581 19.1147L80.0304 11.7737C80.0451 11.7151 80.0321 11.6515 79.995 11.6032C79.9584 11.555 79.9022 11.5275 79.842 11.5275H78.2002C78.1428 11.5275 78.0911 11.551 78.054 11.5952C78.054 11.5952 71.7629 18.8387 70.9108 19.8211C71.1616 18.5874 72.565 11.7662 72.565 11.7662C72.565 11.753 72.5683 11.7381 72.5683 11.7255C72.5683 11.6813 72.5548 11.636 72.525 11.6004C72.4879 11.5545 72.4322 11.5275 72.3743 11.5275H70.5604C70.503 11.5275 70.4496 11.5528 70.413 11.5952L61.353 22.2691C61.2011 20.7151 60.4761 19.0229 60.4761 19.0229C59.2617 16.4848 56.5603 15.6625 55.0281 17.1183L55.0174 17.1206L54.7773 17.2985C55.8887 15.4892 58.7083 15.5696 60.5239 17.7002C60.5239 17.7002 61.3305 18.6895 61.903 20.1614C62.0555 19.6415 62.1488 19.1032 62.1769 18.5529C61.232 17.248 60.1667 16.482 60.1667 16.482C57.8736 14.9039 55.1282 15.5707 54.5146 17.6124L54.5067 17.621L54.3881 17.897C54.4629 15.7618 56.9433 14.3944 59.5587 15.3131C59.5587 15.3131 60.7899 15.7739 62.033 16.7959C62.0161 16.7144 61.9992 16.6329 61.9773 16.5514C61.8428 16.012 61.6482 15.5001 61.3968 15.0239C59.9468 14.3835 58.6622 14.2641 58.6622 14.2641C55.9016 14.0684 53.8526 16.043 54.3217 18.1254L54.3183 18.1363L54.3492 18.437C53.3689 16.5491 54.8459 14.1017 57.5609 13.5612C57.5609 13.5612 58.8213 13.3379 60.3715 13.5738C59.9783 13.1503 59.5295 12.779 59.0317 12.4657C57.4776 12.6516 56.3184 13.2002 56.3184 13.2002C53.8335 14.4374 53.0258 17.1947 54.4527 18.7589L54.4544 18.7681L54.6299 19.0149C52.8554 17.8798 52.9358 15.0038 55.0225 13.1526C55.0225 13.1526 55.9978 12.3228 57.4484 11.7358C56.8499 11.5528 56.2295 11.4598 55.6035 11.4552C54.3909 12.3969 53.6827 13.42 53.6827 13.42C52.1365 15.7607 52.789 18.5592 54.7902 19.1864L54.7975 19.1933L55.0697 19.3167C52.9774 19.2398 51.6371 16.7092 52.5376 14.0403C52.5376 14.0403 52.9521 12.8898 53.8667 11.6801C53.343 11.8184 52.8475 12.0204 52.3829 12.2746C51.7923 13.7121 51.6821 14.963 51.6821 14.963C51.4892 17.78 53.4263 19.8704 55.4674 19.3924L55.4764 19.3953L55.7734 19.3615C53.9223 20.3639 51.5212 18.8559 50.9942 16.0849C50.9942 16.0849 50.7827 14.8471 50.9942 13.3047C50.5532 13.731 50.1674 14.2205 49.8479 14.7668C50.0459 16.2869 50.5515 17.4035 50.5515 17.4035C51.7648 19.9405 54.4662 20.7633 55.9989 19.3069L56.0102 19.3046L56.2498 19.1273C55.1395 20.9366 52.3188 20.8563 50.5049 18.7257C50.5049 18.7257 49.5746 17.5395 49.0886 16.1589C49.0891 16.0941 49.07 16.0321 49.0307 15.9827C48.9806 15.9231 48.9075 15.8875 48.8287 15.8875H47.4817C47.3579 15.8875 47.2516 15.9753 47.2257 16.0981C47.2257 16.0981 47.1222 16.2582 47.0744 16.5744C46.7752 16.3006 46.4209 16.1423 46.0969 15.9994L45.9602 15.9397C45.9445 15.9334 45.927 15.9271 45.9113 15.9236C44.4472 15.5954 42.9764 16.0459 41.7705 17.1901C41.0584 17.8592 40.5466 18.6522 40.2563 19.5095C40.2563 19.5095 40.2473 19.5313 40.2316 19.5657L40.8047 16.1973C40.8171 16.121 40.7963 16.0413 40.7468 15.9816C40.6962 15.9219 40.6231 15.8869 40.5466 15.8875L39.1089 15.8892C38.9829 15.8903 38.8755 15.9816 38.8524 16.109L37.367 24.3745C37.3541 24.4519 37.3749 24.5317 37.4244 24.5931C37.4733 24.6528 37.547 24.6866 37.624 24.6866L39.1393 24.6906C39.2675 24.6906 39.3761 24.5971 39.3969 24.4691L39.9695 21.1065C39.9757 21.1277 39.9807 21.1415 39.9807 21.1415C39.9757 21.4755 40.0027 21.8146 40.064 22.1532C40.2867 23.4167 41.3852 24.596 42.5692 24.8358C43.6018 25.0269 44.7065 24.7595 45.7965 24.0732C45.7752 24.1931 45.7408 24.3745 45.7408 24.3745C45.738 24.3899 45.7369 24.4066 45.7369 24.4232C45.7369 24.4846 45.7577 24.5449 45.7965 24.5931C45.8455 24.6533 45.9191 24.6866 45.9985 24.6866L47.3354 24.6906C47.4614 24.6906 47.57 24.6 47.5919 24.4737L48.7691 17.9682C49.6499 19.0355 50.8024 19.9468 50.8024 19.9468C53.095 21.526 55.8386 20.8592 56.4523 18.818L56.4613 18.8094L56.5805 18.5323C56.5057 20.6675 54.0247 22.0355 51.4087 21.1157C51.4087 21.1157 50.281 20.6927 49.0925 19.7597C49.1026 19.8039 49.1111 19.8498 49.1223 19.8945C49.2635 20.4535 49.4677 20.9831 49.732 21.4755C51.1146 22.0562 52.307 22.1658 52.307 22.1658C55.0658 22.3626 57.1154 20.3869 56.6463 18.3045L56.6502 18.2936L56.6176 17.9917C57.5991 19.8796 56.1215 22.331 53.406 22.8676C53.406 22.8676 52.2192 23.0793 50.7315 22.8745C51.0876 23.2572 51.4892 23.6004 51.9324 23.8942C53.4741 23.7042 54.6164 23.1619 54.6164 23.1619C57.1025 21.9253 57.9107 19.1675 56.4832 17.605L56.4804 17.5929L56.306 17.349C58.0806 18.4829 58.0013 21.3578 55.914 23.2107C55.914 23.2107 54.9184 24.0543 53.4471 24.6424C53.8532 24.7819 54.2699 24.8811 54.6923 24.938H55.2942C56.5304 23.9871 57.2515 22.9422 57.2515 22.9422C58.7994 20.6021 58.1469 17.8018 56.1452 17.1763L56.1367 17.1677L55.8662 17.0455C57.9591 17.1229 59.2994 19.6535 58.3989 22.3224C58.3989 22.3224 57.949 23.5711 56.9517 24.8375C57.0322 24.8192 57.1092 24.8025 57.1885 24.7813C57.6942 24.6505 58.17 24.4594 58.6127 24.2264C59.2314 22.758 59.345 21.4605 59.345 21.4605C59.539 18.647 57.6014 16.5543 55.5591 17.0328L55.5507 17.0306L55.2554 17.0627C57.1047 16.0619 59.507 17.5694 60.0351 20.3404C60.0351 20.3404 60.34 21.6126 60.1116 23.1195C60.0677 23.337 59.9783 23.6526 59.8062 23.9888C59.7539 24.0824 59.6886 24.1931 59.6099 24.3217C59.6116 24.3199 59.6121 24.3182 59.6121 24.3182C59.6116 24.3217 59.6082 24.3245 59.606 24.3285C59.6043 24.3326 59.6043 24.3331 59.6043 24.336C59.5733 24.3899 59.5666 24.4571 59.593 24.5173C59.624 24.5879 59.6937 24.6333 59.7708 24.6315H60.6122C61.0543 24.6292 61.4345 24.6269 61.9402 24.6447C62.0003 24.6459 62.0577 24.6195 62.0965 24.5741C62.0965 24.5741 68.6053 16.6346 69.4118 15.6511C69.103 17.279 68.2279 21.4646 67.6013 24.4037C67.599 24.4175 67.5979 24.4318 67.5979 24.4456C67.5979 24.4909 67.6125 24.5351 67.6401 24.5701C67.6772 24.6183 67.7335 24.6447 67.7942 24.6447L69.274 24.6315C69.3303 24.6315 69.3837 24.6069 69.4203 24.5627C69.4203 24.5627 75.9813 16.7322 76.8211 15.732C76.4712 17.3657 75.5134 21.4944 74.8305 24.3991C74.826 24.4146 74.8238 24.429 74.8238 24.4456C74.8238 24.4886 74.8384 24.5323 74.866 24.5684C74.9036 24.6166 74.9588 24.6447 75.0195 24.6447H76.7699C76.8593 24.6447 76.9386 24.5828 76.96 24.4921L77.7176 21.3567L77.8228 20.916C77.8262 21.0416 77.8279 21.1415 77.8279 21.1415C77.8245 21.4755 77.8515 21.8146 77.9128 22.1532C78.1338 23.4167 79.2346 24.596 80.4163 24.8358C81.449 25.0269 82.5547 24.7595 83.6448 24.0732C83.6228 24.1931 83.5891 24.3745 83.5891 24.3745C83.5863 24.3899 83.5846 24.4066 83.5846 24.4232C83.5846 24.4846 83.6049 24.5449 83.6431 24.5931C83.6943 24.6533 83.768 24.6866 83.8445 24.6866L85.1825 24.6906C85.3097 24.6906 85.4171 24.6 85.4396 24.4737L86.6477 17.924L86.9374 16.1589C86.9385 16.0941 86.9188 16.0321 86.8767 15.9827Z" fill="#D9222A"/>
</svg>
