<svg width="69" height="43" viewBox="0 0 69 43" fill="none" xmlns="http://www.w3.org/2000/svg">
<g clip-path="url(#clip0_7615_2931)">
<path d="M44.1862 39.395H46.7266V39.9763H44.1862V39.395ZM1.92997 35.8689L1.70289 41.7042V41.8056C1.70289 42.2996 1.85006 42.4015 2.64675 42.4573V42.7276C2.06686 42.6835 1.83861 42.6721 1.52076 42.6721C1.20202 42.6721 0.974648 42.6835 0.383301 42.7276V42.4573C1.17911 42.4015 1.29338 42.3112 1.316 41.7042L1.55483 36.1843V36.1178C1.55483 35.5997 1.39532 35.4876 0.611262 35.4429V35.1612C1.05396 35.1952 1.22464 35.2065 1.54337 35.2065C1.90443 35.2097 2.26535 35.1912 2.62413 35.151L4.73865 40.8388L6.88753 35.151C7.40015 35.1952 7.63868 35.2065 7.98004 35.2065C8.26323 35.2065 8.44595 35.1952 8.87778 35.1612V35.4429C8.10489 35.4876 7.93333 35.5997 7.93333 36.1056V36.1843L8.05877 41.7042C8.0711 42.3112 8.17275 42.4006 8.99176 42.4573V42.7276C8.27556 42.6602 8.00207 42.637 7.57024 42.637C7.13752 42.637 6.86462 42.6591 6.14842 42.7276V42.4573C6.92131 42.4128 7.09199 42.2885 7.09199 41.7612V41.7057L6.99064 35.8817L5.11349 40.8952L4.97748 41.2666L4.81826 41.6819L4.66961 42.1105L4.54476 42.4811H4.37408L4.24953 42.1215L4.08972 41.6819L3.93079 41.244L3.79419 40.8507L1.92997 35.8689ZM10.4688 39.5001C10.5828 38.2075 11.0143 37.5451 11.7423 37.5451C12.4817 37.5451 12.8568 38.1744 12.9247 39.5001H10.4688ZM11.9476 42.4453C10.9127 42.4453 10.4571 41.6584 10.4468 39.9046H13.8356C13.8124 38.1735 13.0959 37.2515 11.7537 37.2515C10.3901 37.2515 9.53669 38.3423 9.53669 40.0736C9.53669 41.8047 10.3904 42.8162 11.8565 42.8162C12.9711 42.8162 13.6993 42.13 13.8462 40.9724H13.3909C13.2546 41.9278 12.7543 42.4453 11.9476 42.4453ZM14.5122 37.6674V37.4655C15.1599 37.4095 15.5471 37.3421 16.013 37.2068C16.07 37.6232 16.0926 37.8024 16.1152 38.1401V38.2641C16.3661 37.6232 16.8541 37.2518 17.446 37.2518C18.0141 37.2518 18.4354 37.6232 18.4354 38.1634C18.4354 38.4895 18.2421 38.7026 17.9577 38.7026C17.6963 38.7026 17.4918 38.545 17.4918 38.3208C17.4918 38.2984 17.5036 38.2543 17.5139 38.2075L17.5365 38.0957V37.9935C17.5365 37.8361 17.3999 37.724 17.1951 37.724C16.6047 37.724 16.2295 38.432 16.2295 39.5451V41.8942C16.2295 42.3786 16.3426 42.4683 17.0368 42.5017V42.7267C16.4105 42.6713 16.1719 42.6588 15.7739 42.6588C15.3647 42.6588 15.1261 42.6713 14.501 42.7267V42.5017C15.194 42.4683 15.3191 42.3786 15.3191 41.8942V38.2194C15.3083 37.7356 15.2507 37.6801 14.6602 37.6682L14.5122 37.6674ZM22.7857 37.1513V39.0067H22.5349C22.3301 38.0277 21.9097 37.5558 21.2165 37.5558C20.3628 37.5558 19.8631 38.4671 19.8631 40.0745C19.8631 41.6479 20.3064 42.4462 21.1818 42.4462C21.8868 42.4462 22.3075 41.952 22.4441 40.9631H22.91C22.7619 42.1663 22.1139 42.8179 21.091 42.8179C19.7717 42.8179 18.874 41.7159 18.874 40.0754C18.874 38.3995 19.7832 37.2532 21.1251 37.2532C21.6142 37.2532 21.9212 37.3772 22.2858 37.7257L22.5919 37.1522H22.786V37.1513H22.7857ZM24.6529 39.5001C24.7666 38.2075 25.1981 37.5451 25.9264 37.5451C26.6655 37.5451 27.0406 38.1744 27.1082 39.5001H24.6529ZM26.1311 42.4453C25.0962 42.4453 24.6417 41.6584 24.6303 39.9046H28.0186C27.9959 38.1735 27.2789 37.2515 25.9381 37.2515C24.5727 37.2515 23.7196 38.3423 23.7196 40.0736C23.7196 41.8047 24.5724 42.8162 26.0404 42.8162C27.1546 42.8162 27.8825 42.13 28.0297 40.9724H27.575C27.4387 41.9278 26.9384 42.4453 26.1311 42.4453ZM31.1677 42.5136C30.349 42.5136 29.9172 41.6697 29.9172 40.0632C29.9172 38.434 30.3149 37.6354 31.1339 37.6354C31.9759 37.6354 32.408 38.4895 32.408 40.143C32.4077 41.7039 31.9867 42.5136 31.1677 42.5136ZM33.3054 41.5573V35.0674C32.737 35.2178 32.2259 35.307 31.5893 35.3743V35.566C32.3055 35.566 32.3965 35.6447 32.3965 36.229V38.1959C31.9759 37.5219 31.646 37.3189 31.0317 37.3189C29.8152 37.3189 28.9618 38.4541 28.9618 40.0728C28.9618 41.6918 29.8255 42.8261 31.0658 42.8261C31.7138 42.8261 32.1574 42.5339 32.4755 41.9049C32.5208 42.3321 32.5208 42.3768 32.6351 42.8034C33.1007 42.6571 33.2946 42.6123 33.9655 42.5339L34.1359 42.5119V42.3208C33.3739 42.2984 33.3054 42.2429 33.3054 41.5573ZM35.4996 39.5001C35.6132 38.2075 36.0451 37.5451 36.7733 37.5451C37.5124 37.5451 37.887 38.1744 37.9551 39.5001H35.4996ZM36.9781 42.4453C35.9426 42.4453 35.4887 41.6584 35.4766 39.9046H38.8652C38.8423 38.1735 38.1261 37.2515 36.7848 37.2515C35.4194 37.2515 34.5669 38.3423 34.5669 40.0736C34.5669 41.8047 35.4194 42.8162 36.887 42.8162C38.0013 42.8162 38.7289 42.13 38.8761 40.9724H38.421C38.2856 41.9278 37.7845 42.4453 36.9781 42.4453ZM39.8308 42.8278V40.9498L40.0811 40.939C40.2853 41.9624 40.7632 42.4573 41.5596 42.4573C42.2297 42.4573 42.7306 42.0185 42.7306 41.4464C42.7306 41.0642 42.5149 40.806 41.9568 40.558L41.5249 40.3664L41.002 40.1305C40.171 39.7487 39.9098 39.4336 39.9098 38.7813C39.9098 37.893 40.6143 37.2869 41.6157 37.2869C42.0593 37.2869 42.3898 37.388 42.7758 37.6453L42.9685 37.1847H43.1733V38.9271H42.9112C42.8081 38.0275 42.4336 37.6011 41.7177 37.6011C41.1151 37.6011 40.6478 38.006 40.6478 38.5342C40.6478 38.9835 40.8184 39.1304 41.8534 39.5797L42.3313 39.7826C43.1947 40.1523 43.5029 40.513 43.5029 41.1766C43.5029 42.121 42.7405 42.7944 41.6727 42.7944C41.1492 42.7944 40.7397 42.6594 40.3079 42.3225L40.0338 42.8278H39.8305H39.8308ZM49.827 38.9492C50.4292 38.9492 50.7703 39.0508 51.0323 39.3087C51.2941 39.5683 51.4424 40.0513 51.4424 40.59C51.4424 41.7141 50.8731 42.3443 49.8614 42.3443H49.4522C48.8491 42.3443 48.7471 42.2537 48.7471 41.7591V38.9483L49.827 38.9492ZM48.7463 35.5428H49.713C50.6684 35.5428 51.0887 36.0045 51.0887 37.0494C51.0887 37.5663 50.9639 37.938 50.7139 38.2293C50.4636 38.5113 50.1569 38.6001 49.5206 38.6001H48.7471V35.5425H48.7463V35.5428ZM52.1004 37.0267C52.1004 36.4422 51.8507 35.9258 51.4183 35.5988C51.0323 35.318 50.5893 35.1949 49.849 35.1949H46.8585V35.4757C47.6778 35.521 47.7909 35.6107 47.7909 36.2177V41.6694C47.7909 42.2766 47.6993 42.3545 46.8585 42.423V42.6934H49.7354C50.5764 42.6934 51.032 42.5914 51.51 42.2993C52.0781 41.9398 52.4533 41.2538 52.4533 40.547C52.4533 39.9386 52.1915 39.3883 51.7482 39.0523C51.51 38.8725 51.2594 38.77 50.8496 38.6922C51.6692 38.3873 52.1004 37.8137 52.1004 37.0267ZM54.3096 39.5001C54.4238 38.2075 54.8557 37.5451 55.5839 37.5451C56.3224 37.5451 56.6982 38.1744 56.7657 39.5001H54.3096ZM55.7887 42.4453C54.7537 42.4453 54.2981 41.6584 54.2872 39.9046H57.6764C57.6535 38.1735 56.9367 37.2515 55.5948 37.2515C54.2302 37.2515 53.3771 38.3423 53.3771 40.0736C53.3771 41.8047 54.2302 42.8162 55.6967 42.8162C56.811 42.8162 57.5389 42.13 57.6867 40.9724H57.2316C57.0962 41.9278 56.5959 42.4453 55.7887 42.4453ZM58.2777 37.7121V37.5219C58.9375 37.4313 59.3241 37.3421 59.7783 37.1844C59.8358 37.444 59.8702 37.7353 59.8922 38.1625C60.302 37.555 60.7677 37.2861 61.4277 37.2861C62.1105 37.2861 62.7009 37.6331 62.9292 38.1846C63.0435 38.4549 63.1001 38.7691 63.1001 39.1957V41.8939C63.1001 42.3777 63.2138 42.4674 63.9068 42.5008V42.7259C63.3043 42.6692 63.0772 42.6585 62.6677 42.6585C62.2462 42.6585 62.0194 42.6692 61.4275 42.7259V42.5008C62.0414 42.4793 62.1895 42.3664 62.1895 41.9168V39.1623C62.1895 38.1846 61.894 37.7905 61.1666 37.7905C60.3925 37.7905 59.9836 38.2746 59.9836 39.1957V41.9168C59.9836 42.3664 60.1323 42.4793 60.7239 42.5008V42.7259C60.1323 42.6692 59.9052 42.6585 59.4954 42.6585C59.0973 42.6585 58.8579 42.6692 58.2669 42.7259V42.5008C58.9598 42.4674 59.0741 42.3777 59.0741 41.8939V38.2525C59.0627 37.7905 58.9945 37.724 58.4264 37.724C58.3911 37.724 58.335 37.7121 58.2777 37.7121ZM64.3486 42.6934L67.4302 37.6793H66.0313C65.2928 37.6793 65.1098 37.8361 64.7009 38.8481H64.4744L64.7361 37.3868H68.6479L65.5546 42.4006H66.8844C67.6585 42.4006 67.9763 42.0977 68.3177 41.0741H68.5565L68.2613 42.6934H64.3486Z" fill="#091923"/>
<path d="M48.4273 24.6983C49.9422 22.2078 50.7407 19.3557 50.7365 16.4496C50.7365 7.59319 43.4735 0.413818 34.5149 0.413818C25.5559 0.413818 18.2935 7.59348 18.2935 16.4496C18.2893 19.3558 19.088 22.2079 20.6033 24.6983L20.5443 24.745L20.6148 24.718C23.454 29.372 28.6164 32.4855 34.5149 32.4855C40.4137 32.4855 45.5754 29.372 48.4143 24.718L48.4848 24.745L48.4273 24.6983ZM48.7436 16.4496C48.7464 18.9054 48.0951 21.3186 46.8553 23.4466L36.8203 15.4567L34.7622 2.39089C42.5055 2.52157 48.7436 8.76351 48.7436 16.4496ZM20.2878 16.4496C20.2878 8.7638 26.5253 2.52186 34.2687 2.39089L32.2106 15.4567L22.1756 23.4466C20.9361 21.3185 20.2851 18.9053 20.2878 16.4496ZM34.5154 30.5145C29.4668 30.5145 25.0354 27.9125 22.5102 23.9935L34.5154 19.4022L46.5207 23.9938C43.9952 27.9125 39.5647 30.5145 34.5154 30.5145Z" fill="#838383"/>
</g>
<defs>
<clipPath id="clip0_7615_2931">
<rect width="68.2759" height="42.4138" fill="white" transform="translate(0.377441 0.413818)"/>
</clipPath>
</defs>
</svg>
