<svg width="62" height="62" viewBox="0 0 62 62" fill="none" xmlns="http://www.w3.org/2000/svg">
<circle cx="31" cy="31" r="31" fill="#4CC2C0"/>
<path d="M31.2002 29.5875C31.0752 29.575 30.9252 29.575 30.7877 29.5875C27.8127 29.4875 25.4502 27.05 25.4502 24.05C25.4502 20.9875 27.9252 18.5 31.0002 18.5C34.0627 18.5 36.5502 20.9875 36.5502 24.05C36.5377 27.05 34.1752 29.4875 31.2002 29.5875Z" stroke="white" stroke-width="2" stroke-linecap="round" stroke-linejoin="round"/>
<path d="M24.9499 34.2C21.9249 36.225 21.9249 39.525 24.9499 41.5375C28.3874 43.8375 34.0249 43.8375 37.4624 41.5375C40.4874 39.5125 40.4874 36.2125 37.4624 34.2C34.0374 31.9125 28.3999 31.9125 24.9499 34.2Z" stroke="white" stroke-width="2" stroke-linecap="round" stroke-linejoin="round"/>
</svg>
