<svg width="62" height="62" viewBox="0 0 62 62" fill="none" xmlns="http://www.w3.org/2000/svg">
<circle cx="31" cy="31" r="31" fill="#4CC2C0"/>
<path d="M41.625 30.125V24.8C41.625 19.7625 40.45 18.5 35.725 18.5H26.275C21.55 18.5 20.375 19.7625 20.375 24.8V38.875C20.375 42.2 22.2 42.9875 24.4125 40.6125L24.425 40.6C25.45 39.5125 27.0125 39.6 27.9 40.7875L29.1625 42.475" stroke="white" stroke-width="2" stroke-linecap="round" stroke-linejoin="round"/>
<path d="M26 24.75H36" stroke="white" stroke-width="2" stroke-linecap="round" stroke-linejoin="round"/>
<path d="M27.25 29.75H34.75" stroke="white" stroke-width="2" stroke-linecap="round" stroke-linejoin="round"/>
<path d="M38.7638 34.4628L34.3388 38.8879C34.1638 39.0629 34.0013 39.3879 33.9638 39.6254L33.7263 41.3129C33.6388 41.9254 34.0638 42.3504 34.6763 42.2629L36.3638 42.0254C36.6013 41.9879 36.9388 41.8253 37.1013 41.6503L41.5263 37.2254C42.2888 36.4629 42.6513 35.5754 41.5263 34.4504C40.4138 33.3379 39.5263 33.7003 38.7638 34.4628Z" stroke="white" stroke-width="1.5" stroke-miterlimit="10" stroke-linecap="round" stroke-linejoin="round"/>
<path d="M38.124 35.1003C38.499 36.4503 39.549 37.5003 40.899 37.8753" stroke="white" stroke-width="1.5" stroke-miterlimit="10" stroke-linecap="round" stroke-linejoin="round"/>
</svg>
