<svg width="62" height="62" viewBox="0 0 62 62" fill="none" xmlns="http://www.w3.org/2000/svg">
<circle opacity="0.1" cx="31" cy="31" r="31" fill="#4CC2C0"/>
<g clip-path="url(#clip0_8045_660)">
<g opacity="0.2">
<path d="M45.9311 44.7779L43.8986 39.9672C43.8179 39.7793 43.6754 39.6248 43.4935 39.5304L36.6785 36.0165C36.397 35.8681 36.0554 35.8869 35.7859 36.0646L31.0001 39.2548L26.2142 36.0646C25.9413 35.8826 25.5945 35.8681 25.3079 36.0225C25.2667 36.0457 21.0351 38.3013 18.5254 39.52C18.3349 39.6127 18.1838 39.7724 18.0997 39.9689L16.069 44.7787C15.9282 45.1118 16.0072 45.4971 16.2664 45.7494C16.5208 46 16.907 46.0711 17.2414 45.9211L24.6693 42.5884L30.5709 45.8877C30.8386 46.037 31.1614 46.037 31.4291 45.8877L37.3308 42.5884L44.7586 45.9211C45.0899 46.0696 45.4761 46.0018 45.7336 45.7494C45.9928 45.4972 46.0718 45.1118 45.9311 44.7779Z" fill="white"/>
</g>
<path d="M30.9998 16C26.638 16 23.0898 19.5482 23.0898 23.91C23.0898 25.5339 23.5791 27.0951 24.5043 28.4254L30.2789 36.7165C30.4437 36.9525 30.7132 37.0933 30.9999 37.0933C31.2866 37.0933 31.5561 36.9526 31.7209 36.7165L37.4955 28.4254C38.4207 27.0951 38.9099 25.5338 38.9099 23.91C38.9098 19.5482 35.3616 16 30.9998 16ZM30.9998 27.4255C29.0618 27.4255 27.4843 25.8489 27.4843 23.91C27.4843 21.9711 29.0618 20.3944 30.9998 20.3944C32.9378 20.3944 34.5154 21.9711 34.5154 23.91C34.5154 25.8489 32.9378 27.4255 30.9998 27.4255Z" fill="white"/>
</g>
<defs>
<clipPath id="clip0_8045_660">
<rect width="30" height="30" fill="white" transform="translate(16 16)"/>
</clipPath>
</defs>
</svg>
