<svg width="53" height="64" viewBox="0 0 53 64" fill="none" xmlns="http://www.w3.org/2000/svg">
<path d="M48.65 63.25H4C2.20507 63.25 0.75 61.7949 0.75 60V4C0.75 2.20507 2.20507 0.75 4 0.75H35.8202C36.6751 0.75 37.4957 1.08689 38.104 1.68767L50.9338 14.3591C51.552 14.9697 51.9 15.8025 51.9 16.6714V60C51.9 61.7949 50.4449 63.25 48.65 63.25Z" fill="white" stroke="#CCD2DD" stroke-width="1.5"/>
<path d="M18.5 28.9542V22.2042L26 20.7957L33.5 22.2042V28.9542H18.5Z" fill="#FFD54F"/>
<path d="M18.5 28.9542L26 20.7957L33.5 28.9542H18.5Z" fill="#FFECB3"/>
<path d="M14 28.9543L26 43.2044L38 28.9543H14Z" fill="#FFA000"/>
<path d="M18.5 28.9543L26 43.2044L33.5 28.9543H18.5Z" fill="#FFCA28"/>
<path d="M14 28.9543L18.5 22.2043V28.9543H14Z" fill="#FFC107"/>
<path d="M33.5 22.2043V28.9543H38L33.5 22.2043Z" fill="#FFC107"/>
</svg>
