<svg width="62" height="62" viewBox="0 0 62 62" fill="none" xmlns="http://www.w3.org/2000/svg">
<circle opacity="0.1" cx="31" cy="31" r="31" fill="#4CC2C0"/>
<g opacity="0.2">
<path d="M43.363 30.1797H29.3006C27.8466 30.1797 26.6638 31.3624 26.6638 32.8164V39.8476C26.6638 41.3015 27.8466 42.4843 29.3006 42.4843H37.7257L40.9837 45.7424C41.2375 45.9961 41.6177 46.0681 41.9416 45.9329C42.2703 45.7974 42.4841 45.4763 42.4841 45.121V42.4843H43.363C44.8169 42.4843 45.9997 41.3015 45.9997 39.8476V32.8164C45.9997 31.3624 44.8169 30.1797 43.363 30.1797ZM26.9692 20.9681C26.6379 20.6359 26.195 20.4531 25.7263 20.4531C25.2577 20.4531 24.8148 20.6359 24.4835 20.9681L22.2107 23.2409L21.6958 22.7259C21.0102 22.0385 19.895 22.0393 19.2101 22.7259C18.5217 23.4161 18.5244 24.524 19.2101 25.2116L20.9679 26.9694C21.2992 27.3015 21.7421 27.4844 22.2107 27.4844C22.6794 27.4844 23.1223 27.3015 23.4536 26.9694L26.9692 23.4538C27.6541 22.7688 27.6541 21.6531 26.9692 20.9681ZM27.4842 25.7265C27.4842 26.6956 28.2721 27.4844 29.242 27.4844H38.031C39.0009 27.4844 39.7888 26.6956 39.7888 25.7265C39.7888 24.7575 39.0009 23.9687 38.031 23.9687C39.0009 23.9687 39.7888 23.18 39.7888 22.2109C39.7888 21.2419 39.0009 20.4531 38.031 20.4531H29.242C28.2721 20.4531 27.4842 21.2419 27.4842 22.2109C27.4842 23.18 28.2721 23.9687 29.242 23.9687C28.2721 23.9687 27.4842 24.7575 27.4842 25.7265Z" fill="white"/>
</g>
<path d="M32.8163 35.453C32.3309 35.453 31.9374 35.8466 31.9374 36.332C31.9374 36.8173 32.3309 37.2109 32.8163 37.2109C33.3017 37.2109 33.6952 36.8173 33.6952 36.332C33.6952 35.8466 33.3017 35.453 32.8163 35.453ZM36.3319 35.453C35.8466 35.453 35.453 35.8466 35.453 36.332C35.453 36.8173 35.8466 37.2109 36.3319 37.2109C36.8173 37.2109 37.2108 36.8173 37.2108 36.332C37.2108 35.8466 36.8173 35.453 36.3319 35.453ZM39.8476 35.453C39.3622 35.453 38.9687 35.8466 38.9687 36.332C38.9687 36.8173 39.3622 37.2109 39.8476 37.2109C40.3329 37.2109 40.7265 36.8173 40.7265 36.332C40.7265 35.8466 40.3329 35.453 39.8476 35.453ZM39.8476 16H18.6367C17.1828 16 16 17.1828 16 18.6367V29.3007C16 30.7547 17.1828 31.9374 18.6367 31.9374H19.5742V34.5741C19.5742 34.9295 19.7879 35.2505 20.1167 35.3861C20.4406 35.5213 20.8208 35.4492 21.0745 35.1955L24.3326 31.9374H39.8476C41.3015 31.9374 42.4843 30.7547 42.4843 29.3007V18.6367C42.4843 17.1828 41.3015 16 39.8476 16ZM26.3479 22.8323L22.8323 26.3479C22.6606 26.5196 22.4357 26.6054 22.2109 26.6054C21.9861 26.6054 21.7611 26.5196 21.5895 26.3479L19.8317 24.5901C19.4884 24.2468 19.4884 23.6906 19.8317 23.3473C20.175 23.004 20.7312 23.004 21.0745 23.3473L22.211 24.4837L25.1052 21.5895C25.4485 21.2462 26.0047 21.2462 26.348 21.5895C26.6913 21.9328 26.6913 22.489 26.3479 22.8323ZM38.0312 26.6054H29.2421C28.7563 26.6054 28.3632 26.2123 28.3632 25.7265C28.3632 25.2407 28.7563 24.8476 29.2421 24.8476H38.0312C38.517 24.8476 38.9101 25.2407 38.9101 25.7265C38.9101 26.2123 38.517 26.6054 38.0312 26.6054ZM38.0312 23.0898H29.2421C28.7563 23.0898 28.3632 22.6967 28.3632 22.2109C28.3632 21.7251 28.7563 21.332 29.2421 21.332H38.0312C38.517 21.332 38.9101 21.7251 38.9101 22.2109C38.9101 22.6967 38.517 23.0898 38.0312 23.0898Z" fill="white"/>
</svg>
